<?xml version="1.0" encoding="UTF-8" standalone="no"?>
<!DOCTYPE svg PUBLIC "-//W3C//DTD SVG 1.1//EN"
 "http://www.w3.org/Graphics/SVG/1.1/DTD/svg11.dtd">
<!-- Generated by graphviz version 2.40.1 (20161225.0304)
 -->
<!-- Title: G Pages: 1 -->
<svg width="650pt" height="483pt"
 viewBox="0.00 0.00 649.88 483.00" xmlns="http://www.w3.org/2000/svg" xmlns:xlink="http://www.w3.org/1999/xlink">
<g id="graph0" class="graph" transform="scale(1 1) rotate(0) translate(4 479)">
<title>G</title>
<polygon fill="#ffffff" stroke="transparent" points="-4,4 -4,-479 645.8844,-479 645.8844,4 -4,4"/>
<!-- 10152636656 -->
<g id="node1" class="node">
<title>10152636656</title>
<polygon fill="none" stroke="#000000" points="84.7595,-438.5 84.7595,-474.5 213.1249,-474.5 213.1249,-438.5 84.7595,-438.5"/>
<text text-anchor="middle" x="148.9422" y="-452.3" font-family="Times,serif" font-size="14.00" fill="#000000">input_1: InputLayer</text>
</g>
<!-- 10156579920 -->
<g id="node3" class="node">
<title>10156579920</title>
<polygon fill="none" stroke="#000000" points="0,-365.5 0,-401.5 297.8844,-401.5 297.8844,-365.5 0,-365.5"/>
<text text-anchor="middle" x="148.9422" y="-379.3" font-family="Times,serif" font-size="14.00" fill="#000000">time_distributed(model): TimeDistributed(Model)</text>
</g>
<!-- 10152636656&#45;&gt;10156579920 -->
<g id="edge1" class="edge">
<title>10152636656&#45;&gt;10156579920</title>
<path fill="none" stroke="#000000" d="M148.9422,-438.4551C148.9422,-430.3828 148.9422,-420.6764 148.9422,-411.6817"/>
<polygon fill="#000000" stroke="#000000" points="152.4423,-411.5903 148.9422,-401.5904 145.4423,-411.5904 152.4423,-411.5903"/>
</g>
<!-- 10152638336 -->
<g id="node2" class="node">
<title>10152638336</title>
<polygon fill="none" stroke="#000000" points="414.7595,-438.5 414.7595,-474.5 543.1249,-474.5 543.1249,-438.5 414.7595,-438.5"/>
<text text-anchor="middle" x="478.9422" y="-452.3" font-family="Times,serif" font-size="14.00" fill="#000000">input_2: InputLayer</text>
</g>
<!-- 10183071504 -->
<g id="node4" class="node">
<title>10183071504</title>
<polygon fill="none" stroke="#000000" points="316,-365.5 316,-401.5 641.8844,-401.5 641.8844,-365.5 316,-365.5"/>
<text text-anchor="middle" x="478.9422" y="-379.3" font-family="Times,serif" font-size="14.00" fill="#000000">time_distributed_1(model_1): TimeDistributed(Model)</text>
</g>
<!-- 10152638336&#45;&gt;10183071504 -->
<g id="edge2" class="edge">
<title>10152638336&#45;&gt;10183071504</title>
<path fill="none" stroke="#000000" d="M478.9422,-438.4551C478.9422,-430.3828 478.9422,-420.6764 478.9422,-411.6817"/>
<polygon fill="#000000" stroke="#000000" points="482.4423,-411.5903 478.9422,-401.5904 475.4423,-411.5904 482.4423,-411.5903"/>
</g>
<!-- 10156703872 -->
<g id="node5" class="node">
<title>10156703872</title>
<polygon fill="none" stroke="#000000" points="216.5225,-292.5 216.5225,-328.5 301.3619,-328.5 301.3619,-292.5 216.5225,-292.5"/>
<text text-anchor="middle" x="258.9422" y="-306.3" font-family="Times,serif" font-size="14.00" fill="#000000">lstm: LSTM</text>
</g>
<!-- 10156579920&#45;&gt;10156703872 -->
<g id="edge3" class="edge">
<title>10156579920&#45;&gt;10156703872</title>
<path fill="none" stroke="#000000" d="M176.1332,-365.4551C190.28,-356.0667 207.7579,-344.4678 223.0052,-334.3491"/>
<polygon fill="#000000" stroke="#000000" points="225.2859,-337.0362 231.6828,-328.5904 221.4153,-331.2037 225.2859,-337.0362"/>
</g>
<!-- 10183100456 -->
<g id="node6" class="node">
<title>10183100456</title>
<polygon fill="none" stroke="#000000" points="374.5225,-292.5 374.5225,-328.5 473.3619,-328.5 473.3619,-292.5 374.5225,-292.5"/>
<text text-anchor="middle" x="423.9422" y="-306.3" font-family="Times,serif" font-size="14.00" fill="#000000">lstm_2: LSTM</text>
</g>
<!-- 10183071504&#45;&gt;10183100456 -->
<g id="edge4" class="edge">
<title>10183071504&#45;&gt;10183100456</title>
<path fill="none" stroke="#000000" d="M465.3467,-365.4551C458.8021,-356.7686 450.8318,-346.1898 443.6382,-336.642"/>
<polygon fill="#000000" stroke="#000000" points="446.3849,-334.4711 437.5719,-328.5904 440.794,-338.6834 446.3849,-334.4711"/>
</g>
<!-- 10182721776 -->
<g id="node7" class="node">
<title>10182721776</title>
<polygon fill="none" stroke="#000000" points="227.6171,-219.5 227.6171,-255.5 400.2673,-255.5 400.2673,-219.5 227.6171,-219.5"/>
<text text-anchor="middle" x="313.9422" y="-233.3" font-family="Times,serif" font-size="14.00" fill="#000000">concatenate_1: Concatenate</text>
</g>
<!-- 10156703872&#45;&gt;10182721776 -->
<g id="edge5" class="edge">
<title>10156703872&#45;&gt;10182721776</title>
<path fill="none" stroke="#000000" d="M272.5377,-292.4551C279.0823,-283.7686 287.0526,-273.1898 294.2462,-263.642"/>
<polygon fill="#000000" stroke="#000000" points="297.0904,-265.6834 300.3125,-255.5904 291.4995,-261.4711 297.0904,-265.6834"/>
</g>
<!-- 10183100456&#45;&gt;10182721776 -->
<g id="edge6" class="edge">
<title>10183100456&#45;&gt;10182721776</title>
<path fill="none" stroke="#000000" d="M396.7512,-292.4551C382.6044,-283.0667 365.1265,-271.4678 349.8792,-261.3491"/>
<polygon fill="#000000" stroke="#000000" points="351.4691,-258.2037 341.2016,-255.5904 347.5985,-264.0362 351.4691,-258.2037"/>
</g>
<!-- 10201016696 -->
<g id="node8" class="node">
<title>10201016696</title>
<polygon fill="none" stroke="#000000" points="268.8198,-146.5 268.8198,-182.5 359.0646,-182.5 359.0646,-146.5 268.8198,-146.5"/>
<text text-anchor="middle" x="313.9422" y="-160.3" font-family="Times,serif" font-size="14.00" fill="#000000">dense: Dense</text>
</g>
<!-- 10182721776&#45;&gt;10201016696 -->
<g id="edge7" class="edge">
<title>10182721776&#45;&gt;10201016696</title>
<path fill="none" stroke="#000000" d="M313.9422,-219.4551C313.9422,-211.3828 313.9422,-201.6764 313.9422,-192.6817"/>
<polygon fill="#000000" stroke="#000000" points="317.4423,-192.5903 313.9422,-182.5904 310.4423,-192.5904 317.4423,-192.5903"/>
</g>
<!-- 10207359944 -->
<g id="node9" class="node">
<title>10207359944</title>
<polygon fill="none" stroke="#000000" points="257.1424,-73.5 257.1424,-109.5 370.742,-109.5 370.742,-73.5 257.1424,-73.5"/>
<text text-anchor="middle" x="313.9422" y="-87.3" font-family="Times,serif" font-size="14.00" fill="#000000">dropout: Dropout</text>
</g>
<!-- 10201016696&#45;&gt;10207359944 -->
<g id="edge8" class="edge">
<title>10201016696&#45;&gt;10207359944</title>
<path fill="none" stroke="#000000" d="M313.9422,-146.4551C313.9422,-138.3828 313.9422,-128.6764 313.9422,-119.6817"/>
<polygon fill="#000000" stroke="#000000" points="317.4423,-119.5903 313.9422,-109.5904 310.4423,-119.5904 317.4423,-119.5903"/>
</g>
<!-- 10207511888 -->
<g id="node10" class="node">
<title>10207511888</title>
<polygon fill="none" stroke="#000000" points="261.8198,-.5 261.8198,-36.5 366.0646,-36.5 366.0646,-.5 261.8198,-.5"/>
<text text-anchor="middle" x="313.9422" y="-14.3" font-family="Times,serif" font-size="14.00" fill="#000000">dense_1: Dense</text>
</g>
<!-- 10207359944&#45;&gt;10207511888 -->
<g id="edge9" class="edge">
<title>10207359944&#45;&gt;10207511888</title>
<path fill="none" stroke="#000000" d="M313.9422,-73.4551C313.9422,-65.3828 313.9422,-55.6764 313.9422,-46.6817"/>
<polygon fill="#000000" stroke="#000000" points="317.4423,-46.5903 313.9422,-36.5904 310.4423,-46.5904 317.4423,-46.5903"/>
</g>
</g>
</svg>
