<?xml version="1.0" encoding="UTF-8" standalone="no"?>
<!DOCTYPE svg PUBLIC "-//W3C//DTD SVG 1.1//EN"
 "http://www.w3.org/Graphics/SVG/1.1/DTD/svg11.dtd">
<!-- Generated by graphviz version 2.40.1 (20161225.0304)
 -->
<!-- Title: G Pages: 1 -->
<svg width="906pt" height="337pt"
 viewBox="0.00 0.00 905.70 337.00" xmlns="http://www.w3.org/2000/svg" xmlns:xlink="http://www.w3.org/1999/xlink">
<g id="graph0" class="graph" transform="scale(1 1) rotate(0) translate(4 333)">
<title>G</title>
<polygon fill="#ffffff" stroke="transparent" points="-4,4 -4,-333 901.7048,-333 901.7048,4 -4,4"/>
<!-- 10152639232 -->
<g id="node1" class="node">
<title>10152639232</title>
<polygon fill="none" stroke="#000000" points="377.6697,-292.5 377.6697,-328.5 506.0351,-328.5 506.0351,-292.5 377.6697,-292.5"/>
<text text-anchor="middle" x="441.8524" y="-306.3" font-family="Times,serif" font-size="14.00" fill="#000000">input_3: InputLayer</text>
</g>
<!-- 10152743152 -->
<g id="node2" class="node">
<title>10152743152</title>
<polygon fill="none" stroke="#000000" points="178.8282,-219.5 178.8282,-255.5 290.8766,-255.5 290.8766,-219.5 178.8282,-219.5"/>
<text text-anchor="middle" x="234.8524" y="-233.3" font-family="Times,serif" font-size="14.00" fill="#000000">conv1d: Conv1D</text>
</g>
<!-- 10152639232&#45;&gt;10152743152 -->
<g id="edge1" class="edge">
<title>10152639232&#45;&gt;10152743152</title>
<path fill="none" stroke="#000000" d="M390.6838,-292.4551C361.9473,-282.3209 325.9069,-269.611 295.7261,-258.9675"/>
<polygon fill="#000000" stroke="#000000" points="296.7445,-255.6155 286.1497,-255.5904 294.4164,-262.217 296.7445,-255.6155"/>
</g>
<!-- 10152820976 -->
<g id="node3" class="node">
<title>10152820976</title>
<polygon fill="none" stroke="#000000" points="378.8282,-219.5 378.8282,-255.5 504.8766,-255.5 504.8766,-219.5 378.8282,-219.5"/>
<text text-anchor="middle" x="441.8524" y="-233.3" font-family="Times,serif" font-size="14.00" fill="#000000">conv1d_1: Conv1D</text>
</g>
<!-- 10152639232&#45;&gt;10152820976 -->
<g id="edge2" class="edge">
<title>10152639232&#45;&gt;10152820976</title>
<path fill="none" stroke="#000000" d="M441.8524,-292.4551C441.8524,-284.3828 441.8524,-274.6764 441.8524,-265.6817"/>
<polygon fill="#000000" stroke="#000000" points="445.3525,-265.5903 441.8524,-255.5904 438.3525,-265.5904 445.3525,-265.5903"/>
</g>
<!-- 10154781104 -->
<g id="node4" class="node">
<title>10154781104</title>
<polygon fill="none" stroke="#000000" points="592.8282,-219.5 592.8282,-255.5 718.8766,-255.5 718.8766,-219.5 592.8282,-219.5"/>
<text text-anchor="middle" x="655.8524" y="-233.3" font-family="Times,serif" font-size="14.00" fill="#000000">conv1d_2: Conv1D</text>
</g>
<!-- 10152639232&#45;&gt;10154781104 -->
<g id="edge3" class="edge">
<title>10152639232&#45;&gt;10154781104</title>
<path fill="none" stroke="#000000" d="M494.7513,-292.4551C524.5882,-282.277 562.0415,-269.5009 593.325,-258.8294"/>
<polygon fill="#000000" stroke="#000000" points="594.4859,-262.1315 602.8204,-255.5904 592.2259,-255.5064 594.4859,-262.1315"/>
</g>
<!-- 10152744048 -->
<g id="node5" class="node">
<title>10152744048</title>
<polygon fill="none" stroke="#000000" points="25.8583,-146.5 25.8583,-182.5 277.8465,-182.5 277.8465,-146.5 25.8583,-146.5"/>
<text text-anchor="middle" x="151.8524" y="-160.3" font-family="Times,serif" font-size="14.00" fill="#000000">batch_normalization: BatchNormalization</text>
</g>
<!-- 10152743152&#45;&gt;10152744048 -->
<g id="edge4" class="edge">
<title>10152743152&#45;&gt;10152744048</title>
<path fill="none" stroke="#000000" d="M214.3355,-219.4551C203.9604,-210.3299 191.2108,-199.1165 179.9401,-189.2036"/>
<polygon fill="#000000" stroke="#000000" points="182.2413,-186.5665 172.4209,-182.5904 177.6183,-191.8228 182.2413,-186.5665"/>
</g>
<!-- 10154679936 -->
<g id="node6" class="node">
<title>10154679936</title>
<polygon fill="none" stroke="#000000" points="308.8583,-146.5 308.8583,-182.5 574.8465,-182.5 574.8465,-146.5 308.8583,-146.5"/>
<text text-anchor="middle" x="441.8524" y="-160.3" font-family="Times,serif" font-size="14.00" fill="#000000">batch_normalization_1: BatchNormalization</text>
</g>
<!-- 10152820976&#45;&gt;10154679936 -->
<g id="edge5" class="edge">
<title>10152820976&#45;&gt;10154679936</title>
<path fill="none" stroke="#000000" d="M441.8524,-219.4551C441.8524,-211.3828 441.8524,-201.6764 441.8524,-192.6817"/>
<polygon fill="#000000" stroke="#000000" points="445.3525,-192.5903 441.8524,-182.5904 438.3525,-192.5904 445.3525,-192.5903"/>
</g>
<!-- 10155279248 -->
<g id="node7" class="node">
<title>10155279248</title>
<polygon fill="none" stroke="#000000" points="605.8583,-146.5 605.8583,-182.5 871.8465,-182.5 871.8465,-146.5 605.8583,-146.5"/>
<text text-anchor="middle" x="738.8524" y="-160.3" font-family="Times,serif" font-size="14.00" fill="#000000">batch_normalization_2: BatchNormalization</text>
</g>
<!-- 10154781104&#45;&gt;10155279248 -->
<g id="edge6" class="edge">
<title>10154781104&#45;&gt;10155279248</title>
<path fill="none" stroke="#000000" d="M676.3693,-219.4551C686.7444,-210.3299 699.494,-199.1165 710.7647,-189.2036"/>
<polygon fill="#000000" stroke="#000000" points="713.0865,-191.8228 718.2839,-182.5904 708.4635,-186.5665 713.0865,-191.8228"/>
</g>
<!-- 10152745560 -->
<g id="node8" class="node">
<title>10152745560</title>
<polygon fill="none" stroke="#000000" points="0,-73.5 0,-109.5 277.7048,-109.5 277.7048,-73.5 0,-73.5"/>
<text text-anchor="middle" x="138.8524" y="-87.3" font-family="Times,serif" font-size="14.00" fill="#000000">global_max_pooling1d: GlobalMaxPooling1D</text>
</g>
<!-- 10152744048&#45;&gt;10152745560 -->
<g id="edge7" class="edge">
<title>10152744048&#45;&gt;10152745560</title>
<path fill="none" stroke="#000000" d="M148.6389,-146.4551C147.2014,-138.3828 145.4729,-128.6764 143.8711,-119.6817"/>
<polygon fill="#000000" stroke="#000000" points="147.2731,-118.8218 142.074,-109.5904 140.3815,-120.0491 147.2731,-118.8218"/>
</g>
<!-- 10154677696 -->
<g id="node9" class="node">
<title>10154677696</title>
<polygon fill="none" stroke="#000000" points="296,-73.5 296,-109.5 587.7048,-109.5 587.7048,-73.5 296,-73.5"/>
<text text-anchor="middle" x="441.8524" y="-87.3" font-family="Times,serif" font-size="14.00" fill="#000000">global_max_pooling1d_1: GlobalMaxPooling1D</text>
</g>
<!-- 10154679936&#45;&gt;10154677696 -->
<g id="edge8" class="edge">
<title>10154679936&#45;&gt;10154677696</title>
<path fill="none" stroke="#000000" d="M441.8524,-146.4551C441.8524,-138.3828 441.8524,-128.6764 441.8524,-119.6817"/>
<polygon fill="#000000" stroke="#000000" points="445.3525,-119.5903 441.8524,-109.5904 438.3525,-119.5904 445.3525,-119.5903"/>
</g>
<!-- 10155280200 -->
<g id="node10" class="node">
<title>10155280200</title>
<polygon fill="none" stroke="#000000" points="606,-73.5 606,-109.5 897.7048,-109.5 897.7048,-73.5 606,-73.5"/>
<text text-anchor="middle" x="751.8524" y="-87.3" font-family="Times,serif" font-size="14.00" fill="#000000">global_max_pooling1d_2: GlobalMaxPooling1D</text>
</g>
<!-- 10155279248&#45;&gt;10155280200 -->
<g id="edge9" class="edge">
<title>10155279248&#45;&gt;10155280200</title>
<path fill="none" stroke="#000000" d="M742.0659,-146.4551C743.5034,-138.3828 745.2319,-128.6764 746.8337,-119.6817"/>
<polygon fill="#000000" stroke="#000000" points="750.3233,-120.0491 748.6308,-109.5904 743.4317,-118.8218 750.3233,-120.0491"/>
</g>
<!-- 10152743768 -->
<g id="node11" class="node">
<title>10152743768</title>
<polygon fill="none" stroke="#000000" points="362.5273,-.5 362.5273,-36.5 521.1775,-36.5 521.1775,-.5 362.5273,-.5"/>
<text text-anchor="middle" x="441.8524" y="-14.3" font-family="Times,serif" font-size="14.00" fill="#000000">concatenate: Concatenate</text>
</g>
<!-- 10152745560&#45;&gt;10152743768 -->
<g id="edge10" class="edge">
<title>10152745560&#45;&gt;10152743768</title>
<path fill="none" stroke="#000000" d="M213.7513,-73.4551C257.2623,-62.9722 312.2128,-49.7333 357.2764,-38.8764"/>
<polygon fill="#000000" stroke="#000000" points="358.1259,-42.272 367.0279,-36.527 356.4863,-35.4667 358.1259,-42.272"/>
</g>
<!-- 10154677696&#45;&gt;10152743768 -->
<g id="edge11" class="edge">
<title>10154677696&#45;&gt;10152743768</title>
<path fill="none" stroke="#000000" d="M441.8524,-73.4551C441.8524,-65.3828 441.8524,-55.6764 441.8524,-46.6817"/>
<polygon fill="#000000" stroke="#000000" points="445.3525,-46.5903 441.8524,-36.5904 438.3525,-46.5904 445.3525,-46.5903"/>
</g>
<!-- 10155280200&#45;&gt;10152743768 -->
<g id="edge12" class="edge">
<title>10155280200&#45;&gt;10152743768</title>
<path fill="none" stroke="#000000" d="M675.2232,-73.4551C630.707,-62.9722 574.487,-49.7333 528.3823,-38.8764"/>
<polygon fill="#000000" stroke="#000000" points="528.9415,-35.4124 518.4055,-36.527 527.337,-42.226 528.9415,-35.4124"/>
</g>
</g>
</svg>
