<?xml version="1.0" encoding="UTF-8" standalone="no"?>
<!DOCTYPE svg PUBLIC "-//W3C//DTD SVG 1.1//EN"
 "http://www.w3.org/Graphics/SVG/1.1/DTD/svg11.dtd">
<!-- Generated by graphviz version 2.40.1 (20161225.0304)
 -->
<!-- Title: G Pages: 1 -->
<svg width="274pt" height="921pt"
 viewBox="0.00 0.00 273.99 921.00" xmlns="http://www.w3.org/2000/svg" xmlns:xlink="http://www.w3.org/1999/xlink">
<g id="graph0" class="graph" transform="scale(1 1) rotate(0) translate(4 917)">
<title>G</title>
<polygon fill="#ffffff" stroke="transparent" points="-4,4 -4,-917 269.9882,-917 269.9882,4 -4,4"/>
<!-- 10152640016 -->
<g id="node1" class="node">
<title>10152640016</title>
<polygon fill="none" stroke="#000000" points="68.8114,-876.5 68.8114,-912.5 197.1768,-912.5 197.1768,-876.5 68.8114,-876.5"/>
<text text-anchor="middle" x="132.9941" y="-890.3" font-family="Times,serif" font-size="14.00" fill="#000000">input_4: InputLayer</text>
</g>
<!-- 10152639960 -->
<g id="node2" class="node">
<title>10152639960</title>
<polygon fill="none" stroke="#000000" points="83.9762,-803.5 83.9762,-839.5 182.012,-839.5 182.012,-803.5 83.9762,-803.5"/>
<text text-anchor="middle" x="132.9941" y="-817.3" font-family="Times,serif" font-size="14.00" fill="#000000">flatten: Flatten</text>
</g>
<!-- 10152640016&#45;&gt;10152639960 -->
<g id="edge1" class="edge">
<title>10152640016&#45;&gt;10152639960</title>
<path fill="none" stroke="#000000" d="M132.9941,-876.4551C132.9941,-868.3828 132.9941,-858.6764 132.9941,-849.6817"/>
<polygon fill="#000000" stroke="#000000" points="136.4942,-849.5903 132.9941,-839.5904 129.4942,-849.5904 136.4942,-849.5903"/>
</g>
<!-- 10164136256 -->
<g id="node3" class="node">
<title>10164136256</title>
<polygon fill="none" stroke="#000000" points="77.7574,-730.5 77.7574,-766.5 188.2308,-766.5 188.2308,-730.5 77.7574,-730.5"/>
<text text-anchor="middle" x="132.9941" y="-744.3" font-family="Times,serif" font-size="14.00" fill="#000000">lambda: Lambda</text>
</g>
<!-- 10152639960&#45;&gt;10164136256 -->
<g id="edge2" class="edge">
<title>10152639960&#45;&gt;10164136256</title>
<path fill="none" stroke="#000000" d="M132.9941,-803.4551C132.9941,-795.3828 132.9941,-785.6764 132.9941,-776.6817"/>
<polygon fill="#000000" stroke="#000000" points="136.4942,-776.5903 132.9941,-766.5904 129.4942,-776.5904 136.4942,-776.5903"/>
</g>
<!-- 10164320352 -->
<g id="node4" class="node">
<title>10164320352</title>
<polygon fill="none" stroke="#000000" points="69.9699,-657.5 69.9699,-693.5 196.0183,-693.5 196.0183,-657.5 69.9699,-657.5"/>
<text text-anchor="middle" x="132.9941" y="-671.3" font-family="Times,serif" font-size="14.00" fill="#000000">conv1d_3: Conv1D</text>
</g>
<!-- 10164136256&#45;&gt;10164320352 -->
<g id="edge3" class="edge">
<title>10164136256&#45;&gt;10164320352</title>
<path fill="none" stroke="#000000" d="M132.9941,-730.4551C132.9941,-722.3828 132.9941,-712.6764 132.9941,-703.6817"/>
<polygon fill="#000000" stroke="#000000" points="136.4942,-703.5903 132.9941,-693.5904 129.4942,-703.5904 136.4942,-703.5903"/>
</g>
<!-- 10169821728 -->
<g id="node5" class="node">
<title>10169821728</title>
<polygon fill="none" stroke="#000000" points="0,-584.5 0,-620.5 265.9882,-620.5 265.9882,-584.5 0,-584.5"/>
<text text-anchor="middle" x="132.9941" y="-598.3" font-family="Times,serif" font-size="14.00" fill="#000000">batch_normalization_3: BatchNormalization</text>
</g>
<!-- 10164320352&#45;&gt;10169821728 -->
<g id="edge4" class="edge">
<title>10164320352&#45;&gt;10169821728</title>
<path fill="none" stroke="#000000" d="M132.9941,-657.4551C132.9941,-649.3828 132.9941,-639.6764 132.9941,-630.6817"/>
<polygon fill="#000000" stroke="#000000" points="136.4942,-630.5903 132.9941,-620.5904 129.4942,-630.5904 136.4942,-630.5903"/>
</g>
<!-- 10169820440 -->
<g id="node6" class="node">
<title>10169820440</title>
<polygon fill="none" stroke="#000000" points="34.1908,-511.5 34.1908,-547.5 231.7974,-547.5 231.7974,-511.5 34.1908,-511.5"/>
<text text-anchor="middle" x="132.9941" y="-525.3" font-family="Times,serif" font-size="14.00" fill="#000000">max_pooling1d: MaxPooling1D</text>
</g>
<!-- 10169821728&#45;&gt;10169820440 -->
<g id="edge5" class="edge">
<title>10169821728&#45;&gt;10169820440</title>
<path fill="none" stroke="#000000" d="M132.9941,-584.4551C132.9941,-576.3828 132.9941,-566.6764 132.9941,-557.6817"/>
<polygon fill="#000000" stroke="#000000" points="136.4942,-557.5903 132.9941,-547.5904 129.4942,-557.5904 136.4942,-557.5903"/>
</g>
<!-- 10170054808 -->
<g id="node7" class="node">
<title>10170054808</title>
<polygon fill="none" stroke="#000000" points="69.9699,-438.5 69.9699,-474.5 196.0183,-474.5 196.0183,-438.5 69.9699,-438.5"/>
<text text-anchor="middle" x="132.9941" y="-452.3" font-family="Times,serif" font-size="14.00" fill="#000000">conv1d_4: Conv1D</text>
</g>
<!-- 10169820440&#45;&gt;10170054808 -->
<g id="edge6" class="edge">
<title>10169820440&#45;&gt;10170054808</title>
<path fill="none" stroke="#000000" d="M132.9941,-511.4551C132.9941,-503.3828 132.9941,-493.6764 132.9941,-484.6817"/>
<polygon fill="#000000" stroke="#000000" points="136.4942,-484.5903 132.9941,-474.5904 129.4942,-484.5904 136.4942,-484.5903"/>
</g>
<!-- 10170332664 -->
<g id="node8" class="node">
<title>10170332664</title>
<polygon fill="none" stroke="#000000" points="0,-365.5 0,-401.5 265.9882,-401.5 265.9882,-365.5 0,-365.5"/>
<text text-anchor="middle" x="132.9941" y="-379.3" font-family="Times,serif" font-size="14.00" fill="#000000">batch_normalization_4: BatchNormalization</text>
</g>
<!-- 10170054808&#45;&gt;10170332664 -->
<g id="edge7" class="edge">
<title>10170054808&#45;&gt;10170332664</title>
<path fill="none" stroke="#000000" d="M132.9941,-438.4551C132.9941,-430.3828 132.9941,-420.6764 132.9941,-411.6817"/>
<polygon fill="#000000" stroke="#000000" points="136.4942,-411.5903 132.9941,-401.5904 129.4942,-411.5904 136.4942,-411.5903"/>
</g>
<!-- 10170334456 -->
<g id="node9" class="node">
<title>10170334456</title>
<polygon fill="none" stroke="#000000" points="27.1908,-292.5 27.1908,-328.5 238.7974,-328.5 238.7974,-292.5 27.1908,-292.5"/>
<text text-anchor="middle" x="132.9941" y="-306.3" font-family="Times,serif" font-size="14.00" fill="#000000">max_pooling1d_1: MaxPooling1D</text>
</g>
<!-- 10170332664&#45;&gt;10170334456 -->
<g id="edge8" class="edge">
<title>10170332664&#45;&gt;10170334456</title>
<path fill="none" stroke="#000000" d="M132.9941,-365.4551C132.9941,-357.3828 132.9941,-347.6764 132.9941,-338.6817"/>
<polygon fill="#000000" stroke="#000000" points="136.4942,-338.5903 132.9941,-328.5904 129.4942,-338.5904 136.4942,-338.5903"/>
</g>
<!-- 10170532248 -->
<g id="node10" class="node">
<title>10170532248</title>
<polygon fill="none" stroke="#000000" points="69.9699,-219.5 69.9699,-255.5 196.0183,-255.5 196.0183,-219.5 69.9699,-219.5"/>
<text text-anchor="middle" x="132.9941" y="-233.3" font-family="Times,serif" font-size="14.00" fill="#000000">conv1d_5: Conv1D</text>
</g>
<!-- 10170334456&#45;&gt;10170532248 -->
<g id="edge9" class="edge">
<title>10170334456&#45;&gt;10170532248</title>
<path fill="none" stroke="#000000" d="M132.9941,-292.4551C132.9941,-284.3828 132.9941,-274.6764 132.9941,-265.6817"/>
<polygon fill="#000000" stroke="#000000" points="136.4942,-265.5903 132.9941,-255.5904 129.4942,-265.5904 136.4942,-265.5903"/>
</g>
<!-- 10170940776 -->
<g id="node11" class="node">
<title>10170940776</title>
<polygon fill="none" stroke="#000000" points="0,-146.5 0,-182.5 265.9882,-182.5 265.9882,-146.5 0,-146.5"/>
<text text-anchor="middle" x="132.9941" y="-160.3" font-family="Times,serif" font-size="14.00" fill="#000000">batch_normalization_5: BatchNormalization</text>
</g>
<!-- 10170532248&#45;&gt;10170940776 -->
<g id="edge10" class="edge">
<title>10170532248&#45;&gt;10170940776</title>
<path fill="none" stroke="#000000" d="M132.9941,-219.4551C132.9941,-211.3828 132.9941,-201.6764 132.9941,-192.6817"/>
<polygon fill="#000000" stroke="#000000" points="136.4942,-192.5903 132.9941,-182.5904 129.4942,-192.5904 136.4942,-192.5903"/>
</g>
<!-- 10171047608 -->
<g id="node12" class="node">
<title>10171047608</title>
<polygon fill="none" stroke="#000000" points="27.1908,-73.5 27.1908,-109.5 238.7974,-109.5 238.7974,-73.5 27.1908,-73.5"/>
<text text-anchor="middle" x="132.9941" y="-87.3" font-family="Times,serif" font-size="14.00" fill="#000000">max_pooling1d_2: MaxPooling1D</text>
</g>
<!-- 10170940776&#45;&gt;10171047608 -->
<g id="edge11" class="edge">
<title>10170940776&#45;&gt;10171047608</title>
<path fill="none" stroke="#000000" d="M132.9941,-146.4551C132.9941,-138.3828 132.9941,-128.6764 132.9941,-119.6817"/>
<polygon fill="#000000" stroke="#000000" points="136.4942,-119.5903 132.9941,-109.5904 129.4942,-119.5904 136.4942,-119.5903"/>
</g>
<!-- 10171167968 -->
<g id="node13" class="node">
<title>10171167968</title>
<polygon fill="none" stroke="#000000" points="2.3275,-.5 2.3275,-36.5 263.6607,-36.5 263.6607,-.5 2.3275,-.5"/>
<text text-anchor="middle" x="132.9941" y="-14.3" font-family="Times,serif" font-size="14.00" fill="#000000">bidirectional(lstm_1): Bidirectional(LSTM)</text>
</g>
<!-- 10171047608&#45;&gt;10171167968 -->
<g id="edge12" class="edge">
<title>10171047608&#45;&gt;10171167968</title>
<path fill="none" stroke="#000000" d="M132.9941,-73.4551C132.9941,-65.3828 132.9941,-55.6764 132.9941,-46.6817"/>
<polygon fill="#000000" stroke="#000000" points="136.4942,-46.5903 132.9941,-36.5904 129.4942,-46.5904 136.4942,-46.5903"/>
</g>
</g>
</svg>
